<?xml version="1.0" encoding="UTF-8"?>
<svg id="Capa_1" data-name="Capa 1" xmlns="http://www.w3.org/2000/svg" viewBox="0 0 1042.34 1046">
  <defs>
    <style>
      .cls-1 {
        fill: #7c5638;
      }

      .cls-1, .cls-2, .cls-3 {
        stroke-width: 0px;
      }

      .cls-2 {
        fill: #debd91;
      }

      .cls-3 {
        fill: #f0dfc3;
      }
    </style>
  </defs>
  <path class="cls-1" d="M1042.33,518.85c2.25,271.13-219.16,529.69-524.91,527.13C248.27,1043.73-12.26,824.17.45,496.37,11.41,213.61,230.5,7.08,508.1.17c291.11-7.25,534.9,221.69,534.23,518.68ZM828.46,649.54c1.14,1.34,2.28,2.68,3.42,4.02,2.12-2.51,1.24-4.35-1.31-5.81-14.71-35.53-32.67-64.87-75.32-75.87-42.87-11.06-74.05-57.3-73.09-94.67l-.23.27c52.47-3.27,85.53,16.32,108.5,64.54,4.57,9.59,7.85,19.83,14.84,28.13,1.33,1.87,2.66,3.73,3.99,5.6,2.57-3.03,1.2-5.75-.68-8.43-9.91-38.04-14.17-75.69,6.12-112.17,8.94-16.06,12.69-16.9,22.45-1.28,20.61,32.97,25.63,69.27,12.23,105.2-14.57,39.06-7.06,74.27,9.41,110.67,4.57-9.44,4.88-18.64,4.99-27.91.53-44.86,21.45-79.87,54.44-108.01,21.63-18.45,26.59-15.93,31.15,11.05,1.07,6.35.86,12.34.21,18.72-4.23,41.43-23.97,75.24-51.48,105.02-18.92,20.48-27.74,43.87-25.73,72.09,9.43-1.3,11.44-8.58,15.61-13.85,13.01-16.45,27.03-31.92,47.83-38.72,9.36-3.06,14.92-2.52,13.45,10.69-3.35,30.24-21.13,50.21-44.41,66.54-8.36,5.86-16.87,11.13-21.36,20.75-11.89,25.46-13.44,52.7-15.62,80.91,7.93-2.07,10.77-7.35,14.29-11.42,32.78-37.91,61.26-78.7,82.67-124.21,28.62-60.82,43.65-124.99,46.95-191.94.42-8.57,3.97-18.7-7.8-24.89-22.06-11.59-41.8-26.85-61.5-42.04-63.35-48.86-137.48-82.61-194.27-141.01-16.75-17.22-41.22-9.52-59.5.39-25.86,14.03-46.25,36.39-70.47,53.48-24.13,17.03-46.18,37.27-72.38,51.26-55.62,29.7-107.33,65.5-161.23,100.98,34.76,24.48,66.67,51.33,103.66,70.75,12.79,6.71,26.41,11.89,39.82,17.37,8.6,3.52,13.65,8.71,11.37,18.62-2.23,9.71-9.93,8.02-16.69,7.8-18.31-.6-35.46-7.36-49.4-17.6-61.63-45.28-130.25-79.62-192.1-124.45-14.24-10.32-28.4-20.85-43.36-30.05-17.23-10.61-47.01-8.99-60.37,4.69-33.56,34.36-74.61,57.59-115.63,81-28.48,16.25-26.1,15.84-22.76,49.39,2.16,21.69,10.76,20.08,26.04,16.53,62.72-14.58,125.96-16.09,189.78-7.68,87.18,11.5,166.61,42.87,240.05,90.53,3.86,2.5,6.8,5.79,13.35,3.44,48.19-17.3,97.7-28.57,148.88-33.4,72.75-6.88,134.91,11.09,181.02,71.2,2.55,3.32,4.04,9.81,10.33,7.85,0-9.85.46-19.32-.15-28.72-.44-6.88-2.01-13.73-3.56-20.48-5.05-21.95-16.12-31.31-38.26-31.71-21.72-.39-42.39-5.45-62.19-13.78-20.72-8.72-38.55-21.64-51.16-40.69-6.6-9.97-6.77-18.34,8.14-18.82,17.05-.54,33.64-4.41,51.32-.46,29.45,6.57,53.15,22.1,75.72,40.6ZM152.9,471.71c4.7-3.23,9.37-6.34,13.94-9.6,35.26-25.17,63.49-25.48,98.84-.1,15.87,11.39,31.8,22.97,46.08,36.21,19.44,18.02,39.53,21.45,63.1,9.32,25.31-13.02,48.42-29.44,72.24-44.78,6.62-4.26,10.1-10.85,10.27-17.22.57-21.31,3.14-42.7-1.85-63.97-14.27-60.78-53-100.45-111.34-116.34-59.71-16.26-114.64-1.88-159.35,43.7-41.08,41.88-55.98,115.84-31.93,162.78ZM783.03,318.61c5.45-.51,8-.56,10.47-1,48.27-8.63,96.42-18.12,144.87-25.55,17.41-2.67,15.98-8.26,8.79-20.27-30.5-50.93-69.6-94.2-114.65-132.57-10.87-9.26-19.28-7.71-30.31-.83-34.23,21.38-68.81,42.23-103.63,62.65-73.43,43.06-147.11,85.69-220.61,128.61-5.21,3.04-11.96,4.94-12.23,12.96-.71,20.55,14.2,33.37,34.58,29.73,3.08-.55,6.3-.35,9.4-.82,56.67-8.65,116.52-8.86,157.48-59.29,1.16-1.43,2.97-2.34,4.52-3.43,33.11-23.34,63.37-22.81,95.61,2.12,5.69,4.4,10.96,8.55,15.7,7.7ZM793,930.9c-68.55-10.48-122.92-42.42-173.81-81.73-54.92-42.43-105.99-89.76-166.15-125.51-121.57-72.25-251.21-92.34-389.1-63.95-6,1.24-14.99-.11-10.14,9.96,3.56,7.4-.84,22.2,17.04,18.67,35.89-7.08,72.61-3.58,108.37-1,64.54,4.66,125.62,24.59,183.18,54.97,57.56,30.38,106.3,72.31,154.82,114.8,50.11,43.89,103.8,81.26,168.12,103.22,43.3,14.79,73.64-3.46,107.66-29.42ZM681.81,987.46c-21.83-5.37-41.08-13.01-59.83-21.87-60.82-28.75-110.84-72.37-160.03-117.03-45.67-41.46-95.27-77.06-152.9-99.89-39.42-15.61-79.51-26.24-122.76-30.73-32.01-3.32-63.69-3.08-95.48-4.72-5.87-.3-13.59-1.54-15.88,6.6-3.13,11.11,16.96,34.95,29.15,34.73,65.85-1.2,125.24,20.22,180.95,52.96,46.59,27.37,85.56,64.49,124.12,101.85,32.76,31.73,67.36,61.02,107.32,83.38,25.81,14.44,53.97,25.88,83.02,18.9,27-6.49,54.91-11.71,82.31-24.18ZM640.21,44.33c-13.87-1.84-17.78,6.87-22.68,12.69-61.31,72.84-122.37,145.88-183.32,219.01-14.68,17.61,7.54,22.74,12.22,33.77,4.59,10.82,11.31,6.1,18.24,2.07,50.66-29.49,101.15-59.27,152.21-88.04,56.59-31.88,112.82-64.35,168.22-98.27,11.26-6.89,13.1-11.27.43-19.08-19.9-12.26-39.81-24.54-61.24-33.72-28.31-12.13-57.23-22.84-84.07-28.44ZM127.53,780.65c-6.7.58-13.64-3.08-17.2,2.04-3.27,4.71,2.43,9.24,5.12,13.11,85.09,122.53,201.33,194.78,349.15,215.9,3.95.57,7.7.39,10.05-3.36,2.99-4.77-1.29-6.73-4.02-8.89-6.43-5.09-13.1-9.87-19.64-14.83-50.9-38.63-93.19-86.98-143.09-126.71-53.36-42.48-113.24-69.84-180.37-77.24ZM604.14,38.03c-49.54-9.87-96.63-7.55-143.76-3.92-10.94.84-17.68,5.76-21.25,16.98-19.41,61.1-38.1,122.5-59.97,182.73-8.31,22.89,10.29,25.08,19.35,33.8,10.48,10.1,17.03-3,22.24-9.15,40.41-47.66,80.03-95.99,120.17-143.88,20.6-24.57,43.11-47.55,63.22-76.57ZM615.2,806.76c54.45,45.97,108.49,84.1,176.53,95.37,41.17,6.82,41.39,5.54,50.81-35.79.84-3.66,2.3-7.33,2.33-11,.16-17.29,4.14-36.19-14.64-47.31-16.92-10.02-34.57-17.38-55.28-15.64-21.51,1.8-42.79-2.74-64.85-1.4-31.43,1.92-60.91,8.96-94.91,15.77ZM1008.36,482.59c.76-57.5-14.13-109.02-34.87-159.3-5.22-12.66-13.04-15.2-25.01-13.07-23.57,4.2-47.26,7.76-70.82,12.02-24.5,4.44-48.9,9.4-73.34,14.13-.69,1.91-1.37,3.82-2.06,5.73,65.8,50.78,141.81,86.89,206.09,140.48ZM309.66,155.4s.08,0,.12,0c0,20.86,1.01,41.79-.37,62.57-.86,12.83,3.37,18.66,15.57,19.91,4.39.45,9.17.39,13.01,2.2,13.44,6.32,18.66.75,22.76-12.09,18.52-58.06,37.53-115.97,57.2-173.66,4.88-14.3-.4-15.59-11.89-12.95-30.28,6.96-58.9,18.47-87.15,31.18-7.71,3.47-9.46,8.81-9.36,16.47.3,22.12.11,44.26.11,66.38ZM530.98,737.96c17.57,14.48,32.38,26.05,46.43,38.49,8.45,7.48,16.48,9.87,27.48,5.63,30.26-11.65,63.29-17.74,94.2-17.49,38.09.32,76.93-7.76,115.17,3.42-21.07-25.91-45.94-45.15-78.78-51.41-68.83-13.11-134.78,2.31-204.5,21.35ZM290.68,163.55c-.14,0-.28,0-.42,0,0-20.2-.36-40.42.13-60.61.31-12.6-4.61-14.99-14.44-8.5-16.82,11.1-33.14,22.95-50.02,33.97-7.94,5.19-8.38,11.63-5.99,19.61,8.64,28.85,17.34,57.69,25.58,86.65,1.73,6.07,4.16,8.63,10.54,7.13,6.7-1.57,13.5-2.79,20.3-3.91,11.15-1.85,15.41-7.54,14.63-19.43-1.19-18.23-.31-36.6-.31-54.91ZM198.8,150.31c-19.25,16.11-35.23,31.14-49.49,48.05-6.04,7.17-5.09,12.95.77,19.86,11.42,13.46,21.93,27.7,33.22,41.28,4,4.81,8.28,14.78,15.92,7.1,8.86-8.9,31.62-5.18,27.04-25.61-6.73-29.99-14.86-59.77-27.46-90.69ZM30.45,551.15c34.52-18.84,66.59-35.85,95.99-57.55,10.89-8.03,1.31-16.15.13-23.76-1.39-9.01-8.46-5.77-14.86-4.37-20.84,4.57-41.79,8.7-62.82,12.28-12.22,2.08-18.58,8.13-18.48,20.77.14,16.31.03,32.62.03,52.62ZM119.17,421.48c6.4-18.73-2.22-25.5-20.48-25.66-10.53-.09-21.58-.84-31.44-4.16-15.06-5.07-20.73.93-22.8,14.55-2.04,13.48-3.45,27.12-6.61,40.34-2.9,12.1,3.11,13.09,11.88,11.46,16.54-3.06,32.87-7.53,49.52-9.59,16.8-2.08,26-8.21,19.94-26.94ZM127.22,226.76c-1.84,2.44-4.23,5.37-6.37,8.47-7.5,10.87-14.92,21.8-22.35,32.72-7.54,11.08-5.71,19.09,6.84,25.27,10.1,4.97,19.23,11.9,29.17,17.24,5.41,2.9,11.95,11.91,17.62,3.4,7.32-10.98,26.22-19.21,20.52-32.99-8.27-20-24.93-35.92-40.32-51.72-.77-.79-2.11-1.02-5.12-2.39ZM112.11,376.44c4.9-.12,9.41,2.63,13.68-3.03,14.07-18.68,10.92-36.1-9.33-48.67-2.67-1.66-5.26-3.48-8.02-4.97-33.48-18.1-28.09-23.15-42.65,13.98-2.29,5.85-4.31,11.8-6.66,17.63-3.7,9.17-6.03,15.81,8.94,16.63,14.79.81,29.37,5.47,44.04,8.45ZM481.56,438.11c28.24-6.51,77.13-36.5,90.76-56.66-20.46,3.96-39.62,7.17-58.54,11.43-35.29,7.95-35.23,8.2-32.21,45.23ZM917.44,573.84c-19.06,18.83-25.09,38.57-28.68,59.48,15.31-15.47,28.38-32.04,28.68-59.48ZM720.24,510.86c12.73,19.07,25.4,31.82,46.51,39.26-9.19-21.88-23.74-32.45-46.51-39.26ZM747.01,637.81c18.89,13.69,35.03,20.94,56.25,21.13-15.88-14.19-33.07-18.68-56.25-21.13ZM832.37,534.51c2.34-15.23,0-27.54-6.47-39.14-2.84,13.34-8.64,27.1,6.47,39.14ZM812.86,584.97c.39-.52,1.09-1.04,1.01-1.41-.21-1.03-.73-2-1.14-2.99-.38.43-1.15.95-1.08,1.28.23,1.07.76,2.06,1.2,3.13Z"/>
  <path class="cls-2" d="M805.26,570.17c-6.97-8.32-10.25-18.56-14.82-28.15-22.98-48.21-56.03-67.81-108.5-64.54-.26-.49-.45-1.04-.82-1.43-.17-.18-.68-.03-1.04-.03.7.4,1.39.8,2.09,1.19-.95,37.37,30.23,83.61,73.09,94.67,42.64,11,60.61,40.34,75.32,75.87-.71.61-1.42,1.21-2.13,1.81-22.55-18.52-46.25-34.05-75.7-40.62-17.68-3.95-34.27-.08-51.32.46-14.9.47-14.73,8.85-8.14,18.82,12.61,19.05,30.45,31.97,51.16,40.69,19.79,8.33,40.47,13.4,62.19,13.78,22.14.39,33.21,9.75,38.26,31.71,1.55,6.75,3.12,13.6,3.56,20.48.61,9.4.15,18.88.15,28.72-6.29,1.97-7.77-4.52-10.33-7.85-46.12-60.11-108.27-78.07-181.02-71.2-51.17,4.84-100.69,16.11-148.88,33.4-6.56,2.35-9.49-.93-13.35-3.44-73.44-47.65-152.87-79.03-240.05-90.53-63.81-8.42-127.06-6.9-189.78,7.68-15.28,3.55-23.88,5.16-26.04-16.53-3.34-33.56-5.72-33.14,22.76-49.39,41.03-23.41,82.08-46.64,115.63-81,13.36-13.68,43.14-15.3,60.37-4.69,14.95,9.21,29.12,19.73,43.36,30.05,61.85,44.83,130.47,79.17,192.1,124.45,13.94,10.24,31.09,17,49.4,17.6,6.76.22,14.46,1.9,16.69-7.8,2.27-9.91-2.77-15.1-11.37-18.62-13.4-5.49-27.03-10.66-39.82-17.37-36.99-19.41-68.9-46.27-103.66-70.75,53.9-35.49,105.61-71.28,161.23-100.98,26.2-13.99,48.25-34.22,72.38-51.26,24.22-17.1,44.61-39.46,70.47-53.48,18.27-9.91,42.75-17.61,59.5-.39,56.78,58.4,130.92,92.14,194.27,141.01,19.69,15.19,39.44,30.45,61.5,42.04,11.77,6.19,8.23,16.31,7.8,24.89-3.29,66.95-18.33,131.12-46.95,191.94-21.41,45.51-49.89,86.31-82.67,124.21-3.52,4.08-6.36,9.36-14.29,11.42,2.18-28.22,3.73-55.46,15.62-80.91,4.49-9.62,13.01-14.89,21.36-20.75,23.29-16.33,41.06-36.31,44.41-66.54,1.46-13.2-4.09-13.74-13.45-10.69-20.8,6.8-34.82,22.27-47.83,38.72-4.17,5.27-6.18,12.56-15.61,13.85-2.01-28.23,6.81-51.61,25.73-72.09,27.51-29.78,47.25-63.59,51.48-105.02.65-6.37.86-12.37-.21-18.72-4.56-26.98-9.52-29.5-31.15-11.05-32.99,28.13-53.91,63.14-54.44,108.01-.11,9.27-.42,18.47-4.99,27.91-16.46-36.4-23.97-71.61-9.41-110.67,13.4-35.93,8.37-72.23-12.23-105.2-9.76-15.62-13.51-14.79-22.45,1.28-20.3,36.49-16.03,74.13-6.12,112.17-1.11.95-2.22,1.9-3.32,2.85Z"/>
  <path class="cls-3" d="M152.9,471.71c-24.05-46.94-9.15-120.9,31.93-162.78,44.71-45.58,99.64-59.96,159.35-43.7,58.34,15.89,97.07,55.56,111.34,116.34,4.99,21.27,2.42,42.66,1.85,63.97-.17,6.37-3.65,12.95-10.27,17.22-23.82,15.35-46.94,31.76-72.24,44.78-23.57,12.13-43.65,8.7-63.1-9.32-14.28-13.24-30.22-24.82-46.08-36.21-35.35-25.38-63.58-25.07-98.84.1-4.57,3.26-9.24,6.37-13.94,9.6Z"/>
  <path class="cls-3" d="M783.03,318.61c-4.74.85-10.01-3.3-15.7-7.7-32.24-24.93-62.51-25.46-95.61-2.12-1.55,1.09-3.36,2-4.52,3.43-40.96,50.43-100.81,50.64-157.48,59.29-3.1.47-6.32.27-9.4.82-20.38,3.64-35.29-9.17-34.58-29.73.28-8.02,7.03-9.92,12.23-12.96,73.51-42.92,147.19-85.55,220.61-128.61,34.82-20.42,69.39-41.27,103.63-62.65,11.02-6.88,19.44-8.43,30.31.83,45.05,38.37,84.16,81.64,114.65,132.57,7.19,12.01,8.61,17.6-8.79,20.27-48.46,7.44-96.6,16.92-144.87,25.55-2.48.44-5.02.49-10.47,1Z"/>
  <path class="cls-2" d="M793,930.9c-34.01,25.96-64.35,44.2-107.66,29.42-64.31-21.96-118-59.33-168.12-103.22-48.52-42.49-97.26-84.42-154.82-114.8-57.56-30.38-118.64-50.31-183.18-54.97-35.76-2.58-72.48-6.08-108.37,1-17.88,3.53-13.48-11.27-17.04-18.67-4.85-10.08,4.14-8.73,10.14-9.96,137.89-28.39,267.53-8.29,389.1,63.95,60.15,35.75,111.22,83.08,166.15,125.51,50.89,39.31,105.26,71.25,173.81,81.73Z"/>
  <path class="cls-2" d="M681.81,987.46c-27.4,12.47-55.31,17.69-82.31,24.18-29.06,6.99-57.21-4.45-83.02-18.9-39.96-22.36-74.57-51.65-107.32-83.38-38.56-37.35-77.53-74.47-124.12-101.85-55.71-32.74-115.1-54.16-180.95-52.96-12.19.22-32.28-23.62-29.15-34.73,2.29-8.13,10.01-6.9,15.88-6.6,31.8,1.64,63.48,1.39,95.48,4.72,43.25,4.49,83.35,15.12,122.76,30.73,57.62,22.82,107.23,58.42,152.9,99.89,49.19,44.66,99.21,88.27,160.03,117.03,18.75,8.86,38,16.5,59.83,21.87Z"/>
  <path class="cls-3" d="M640.21,44.33c26.84,5.6,55.77,16.31,84.07,28.44,21.43,9.19,41.34,21.47,61.24,33.72,12.66,7.8,10.83,12.18-.43,19.08-55.4,33.92-111.62,66.39-168.22,98.27-51.06,28.77-101.56,58.55-152.21,88.04-6.92,4.03-13.65,8.75-18.24-2.07-4.68-11.03-26.9-16.16-12.22-33.77,60.95-73.13,122.01-146.18,183.32-219.01,4.9-5.83,8.82-14.53,22.68-12.69Z"/>
  <path class="cls-2" d="M127.53,780.65c67.12,7.4,127.01,34.76,180.37,77.24,49.9,39.73,92.2,88.09,143.09,126.71,6.54,4.96,13.2,9.75,19.64,14.83,2.74,2.16,7.01,4.12,4.02,8.89-2.35,3.75-6.1,3.93-10.05,3.36-147.82-21.12-264.06-93.37-349.15-215.9-2.69-3.87-8.39-8.4-5.12-13.11,3.56-5.12,10.5-1.46,17.2-2.04Z"/>
  <path class="cls-3" d="M604.14,38.03c-20.11,29.02-42.63,52-63.22,76.57-40.14,47.89-79.76,96.21-120.17,143.88-5.21,6.15-11.76,19.25-22.24,9.15-9.05-8.72-27.66-10.91-19.35-33.8,21.88-60.23,40.56-121.62,59.97-182.73,3.56-11.22,10.3-16.14,21.25-16.98,47.13-3.63,94.22-5.95,143.76,3.92Z"/>
  <path class="cls-2" d="M615.2,806.76c33.99-6.81,63.48-13.85,94.91-15.77,22.06-1.35,43.33,3.2,64.85,1.4,20.72-1.73,38.36,5.63,55.28,15.64,18.78,11.12,14.8,30.02,14.64,47.31-.03,3.67-1.5,7.34-2.33,11-9.42,41.33-9.64,42.61-50.81,35.79-68.04-11.28-122.08-49.41-176.53-95.37Z"/>
  <path class="cls-3" d="M1008.36,482.59c-64.29-53.59-140.29-89.7-206.09-140.48.69-1.91,1.37-3.82,2.06-5.73,24.44-4.73,48.84-9.69,73.34-14.13,23.56-4.27,47.25-7.83,70.82-12.02,11.97-2.13,19.79.4,25.01,13.07,20.74,50.28,35.63,101.8,34.87,159.3Z"/>
  <path class="cls-3" d="M309.66,155.4c0-22.13.19-44.26-.11-66.38-.1-7.66,1.64-13,9.36-16.47,28.24-12.7,56.87-24.22,87.15-31.18,11.49-2.64,16.77-1.35,11.89,12.95-19.67,57.68-38.68,115.59-57.2,173.66-4.1,12.84-9.32,18.41-22.76,12.09-3.84-1.8-8.62-1.75-13.01-2.2-12.21-1.25-16.43-7.08-15.57-19.91,1.39-20.77.37-41.7.37-62.57-.04,0-.08,0-.12,0Z"/>
  <path class="cls-2" d="M530.98,737.96c69.72-19.04,135.66-34.46,204.5-21.35,32.84,6.25,57.71,25.49,78.78,51.41-38.24-11.18-77.08-3.1-115.17-3.42-30.91-.26-63.93,5.84-94.2,17.49-11,4.24-19.03,1.84-27.48-5.63-14.05-12.44-28.86-24.01-46.43-38.49Z"/>
  <path class="cls-3" d="M290.68,163.55c0,18.31-.87,36.68.31,54.91.77,11.89-3.48,17.58-14.63,19.43-6.8,1.13-13.6,2.34-20.3,3.91-6.37,1.5-8.81-1.06-10.54-7.13-8.24-28.97-16.94-57.8-25.58-86.65-2.39-7.98-1.95-14.42,5.99-19.61,16.87-11.02,33.2-22.87,50.02-33.97,9.82-6.48,14.75-4.1,14.44,8.5-.5,20.19-.13,40.41-.13,60.61.14,0,.28,0,.42,0Z"/>
  <path class="cls-3" d="M198.8,150.31c12.6,30.92,20.73,60.69,27.46,90.69,4.59,20.43-18.18,16.7-27.04,25.61-7.64,7.68-11.92-2.29-15.92-7.1-11.29-13.58-21.8-27.82-33.22-41.28-5.86-6.91-6.81-12.69-.77-19.86,14.26-16.91,30.23-31.95,49.49-48.05Z"/>
  <path class="cls-3" d="M30.45,551.15c0-19.99.1-36.31-.03-52.62-.1-12.63,6.26-18.68,18.48-20.77,21.03-3.59,41.98-7.72,62.82-12.28,6.4-1.4,13.46-4.64,14.86,4.37,1.18,7.61,10.75,15.72-.13,23.76-29.4,21.7-61.47,38.7-95.99,57.55Z"/>
  <path class="cls-3" d="M119.17,421.48c6.06,18.73-3.13,24.86-19.94,26.94-16.65,2.06-32.98,6.53-49.52,9.59-8.77,1.62-14.77.63-11.88-11.46,3.16-13.22,4.58-26.86,6.61-40.34,2.06-13.63,7.74-19.62,22.8-14.55,9.85,3.32,20.91,4.07,31.44,4.16,18.26.16,26.89,6.94,20.48,25.66Z"/>
  <path class="cls-3" d="M127.22,226.76c3.01,1.37,4.35,1.6,5.12,2.39,15.39,15.8,32.05,31.72,40.32,51.72,5.7,13.78-13.19,22.01-20.52,32.99-5.68,8.52-12.21-.49-17.62-3.4-9.95-5.34-19.07-12.27-29.17-17.24-12.56-6.18-14.39-14.19-6.84-25.27,7.43-10.92,14.85-21.84,22.35-32.72,2.14-3.1,4.52-6.03,6.37-8.47Z"/>
  <path class="cls-3" d="M112.11,376.44c-14.67-2.97-29.25-7.64-44.04-8.45-14.97-.82-12.64-7.45-8.94-16.63,2.35-5.82,4.36-11.78,6.66-17.63,14.56-37.13,9.16-32.08,42.65-13.98,2.76,1.49,5.35,3.31,8.02,4.97,20.25,12.57,23.4,29.99,9.33,48.67-4.27,5.66-8.78,2.91-13.68,3.03Z"/>
  <path class="cls-3" d="M481.56,438.11c-3.01-37.03-3.07-37.28,32.21-45.23,18.92-4.26,38.08-7.48,58.54-11.43-13.62,20.16-62.52,50.15-90.76,56.66Z"/>
  <path class="cls-2" d="M917.44,573.84c-.3,27.44-13.37,44.01-28.68,59.48,3.59-20.91,9.62-40.65,28.68-59.48Z"/>
  <path class="cls-2" d="M720.24,510.86c22.77,6.81,37.33,17.38,46.51,39.26-21.11-7.43-33.78-20.19-46.51-39.26Z"/>
  <path class="cls-2" d="M747.01,637.81c23.18,2.44,40.38,6.94,56.25,21.13-21.22-.19-37.36-7.43-56.25-21.13Z"/>
  <path class="cls-2" d="M832.37,534.51c-15.12-12.05-9.31-25.8-6.47-39.14,6.48,11.6,8.81,23.92,6.47,39.14Z"/>
  <path class="cls-2" d="M812.86,584.97c-.43-1.06-.97-2.06-1.2-3.13-.07-.34.69-.85,1.08-1.28.4.99.93,1.96,1.14,2.99.07.37-.62.9-1.01,1.41Z"/>
  <path class="cls-2" d="M808.58,567.31c1.88,2.68,3.24,5.39.68,8.43-1.33-1.87-2.66-3.73-3.99-5.59,1.1-.94,2.21-1.89,3.32-2.84Z"/>
  <path class="cls-2" d="M830.57,647.75c2.55,1.46,3.43,3.3,1.31,5.81-1.14-1.34-2.28-2.68-3.43-4.01.7-.59,1.41-1.19,2.12-1.8Z"/>
  <path class="cls-1" d="M682.16,477.21c-.7-.4-1.39-.8-2.09-1.19.36,0,.87-.15,1.04.03.37.39.56.95.82,1.43,0,0,.23-.27.23-.27Z"/>
</svg>