<?xml version="1.0" encoding="UTF-8"?>
<svg id="Capa_1" data-name="Capa 1" xmlns="http://www.w3.org/2000/svg" viewBox="0 0 1045.92 248.06">
  <defs>
    <style>
      .cls-1 {
        fill: #7c5638;
        stroke-width: 0px;
      }
    </style>
  </defs>
  <path class="cls-1" d="M157.32,243.03c-15.18,0-30.35.06-45.53-.05-3.06-.02-7.08.92-8.42-2.89-1.66-4.71,2.42-6.72,5.7-7.97,10.5-3.98,12.4-12.04,12.35-22.11-.18-40.48-.06-80.96.22-121.44.07-9.65-2.23-17.1-12.22-20.67-3.34-1.19-7.1-3.16-6.1-7.91.67-3.2,3.68-4.33,6.38-4.23,40.16,1.35,81.29-5.81,120.03,9.22,40.06,15.55,62.16,59.53,53.73,102.38-9.69,49.31-42.19,75.6-93.02,75.3-11.04-.06-22.08,0-33.12,0,0,.12,0,.24,0,.37ZM157.6,148.2c.14,0,.27,0,.41,0,0,21.14.19,42.28-.08,63.42-.13,9.93,4.01,15.46,14,16.52,32.77,3.48,57.76-7.21,68.16-41.28,5.05-16.55,2.78-33.64,3.39-50.53,1.3-36.19-28.67-69.17-71.47-65.55-10.04.85-14.86,4.59-14.57,15.37.55,20.67.16,41.36.16,62.04Z"/>
  <path class="cls-1" d="M947.69,248.05c-53.65-.43-89.17-39.7-88.5-97.86.65-57.14,41.09-99.58,94.29-98.96,50.25.59,92.63,46.14,92.43,99.35-.22,57.83-40.62,97.93-98.22,97.47ZM899.59,146.71c-.19,18.81.84,37.18,9.07,54.12,8.95,18.44,22.12,30.93,44.35,31.62,22.75.7,36.59-10.85,43.82-30.75,13.2-36.39,13.2-73.05-3.69-108.23-8.37-17.43-24.1-25.76-44-25.44-19.28.31-31.74,10.61-40.05,26.81-8.39,16.36-10.39,34.08-9.49,51.87Z"/>
  <path class="cls-1" d="M717.99,143.21c-.82,20.66,2.35,39.53,11.38,57.08,9.83,19.11,25.83,30.38,47.12,30.95,21.09.56,34.9-11.82,43.23-30.66,1.11-2.51,2.67-4.83,3.75-7.35,1.42-3.31,3.46-5.51,7.32-4.7,3.74.78,4.76,3.7,5.38,7.1,4.95,26.89-4.78,42.47-31.62,47.95-28.72,5.87-57.61,8.23-84.02-8.45-23.2-14.65-35.77-37.05-39.28-63.48-4.84-36.48.96-70.54,30.06-96.96,25.14-22.82,79.37-30.12,109.24-14.93,5.69,2.89,8.28,7.22,8.7,12.98.74,10.08,1.01,20.2,1.47,30.3.18,4.07-1.19,7.6-5.25,8.67-4.38,1.15-6.51-2.02-8.07-5.68-1.61-3.8-3.4-7.53-5.29-11.2-17.06-33.24-57.21-36.65-79.88-6.7-12.61,16.66-15.7,35.87-14.25,55.1Z"/>
  <path class="cls-1" d="M481.09,243.41c-17.93,0-35.87.01-53.8,0-3.95,0-9,1.64-10.21-4.04-.95-4.46,2.86-6.34,6.4-7.67,10.51-3.93,12.48-13.04,12.57-22.37.36-40.02.3-80.03.3-120.05,0-9.78-2.67-18.12-12.9-22.14-2.83-1.11-6.58-2.3-5.28-6.68,1.1-3.71,4.63-4.5,7.8-4.53,18.85-.16,37.7-.14,56.54-.01,3.28.02,6.7,1.09,7.74,4.67,1.27,4.38-2.69,5.67-5.46,6.52-10.2,3.13-12.93,10.54-12.88,20.15.19,40.02.44,80.04.25,120.05-.06,12.11,3.8,18.4,17.06,19.66,28.22,2.67,41.42-3.77,54.74-28.97,1.94-3.66,2.21-10.67,8.3-9.11,6.89,1.77,5.38,8.67,5.21,14.06-.07,2.25-1.09,4.45-1.51,6.7q-6.09,33.18-40.38,33.13c-11.5-.01-23,0-34.5,0,0,.21,0,.43,0,.64Z"/>
  <path class="cls-1" d="M618.69,243.74c-8.72,0-17.44-.05-26.17.03-3.27.03-7.05.31-8.33-3.14-1.34-3.6,1.47-6.18,4.62-7.35,10.08-3.74,11.53-11.66,11.47-21.07-.25-40.88-.38-81.77-.15-122.65.06-10.39-.94-19.28-12.52-23.09-2.58-.85-5-2.85-4.1-6.2.81-3,3.4-4.47,6.26-4.48,19.74-.08,39.48-.08,59.22.16,2.66.03,5.66,1.55,6.44,4.45,1.15,4.32-2.7,5.56-5.52,6.42-10.42,3.17-12.31,10.93-12.26,20.42.19,40.42.4,80.84.06,121.26-.09,10.54,1.81,19.02,12.14,23.86,2.94,1.37,6.09,3.44,5.35,7.16-.95,4.77-5.42,4.22-8.95,4.28-9.18.16-18.37.05-27.56.05v-.09Z"/>
  <path class="cls-1" d="M331.75,150.06c0-20.25-.17-40.51.07-60.76.12-9.93-1.71-18.3-12.12-22.42-3.05-1.21-6.11-3.24-4.62-7.2,1.33-3.53,4.78-3.77,8.13-3.72,17.95.23,35.9.43,53.85.6,3.31.03,6.98,0,8.22,3.6,1.77,5.15-3.07,6.36-6.15,7.32-8.84,2.76-10.36,9.2-10.32,17.19.21,41.89.32,83.77.31,125.66,0,9.86,1.63,18.29,12.59,21.85,3.13,1.02,5.47,3.75,4.32,7.57-1.01,3.36-4.16,3.18-6.86,3.18-19.79.05-39.59.06-59.38-.02-2.7,0-5.98.01-6.85-3.29-1.11-4.17,2.47-5.72,5.31-6.87,11.42-4.59,13.43-13.71,13.22-24.68-.37-19.33-.1-38.67-.1-58.01.12,0,.24,0,.36,0Z"/>
  <path class="cls-1" d="M18.89,148.99c0-16.55.02-33.11,0-49.66-.02-13.4.8-27.18-15.49-32.99-2.37-.85-3.44-2.94-3.29-5.47.22-3.62,3.3-4.68,5.81-4.72,19.75-.31,39.5-.34,59.25-.34,2.89,0,5.49,1.36,6.33,4.36,1.1,3.9-1.59,6.66-4.54,7.46-11.92,3.23-11.75,12.35-11.73,21.86.1,40.01.15,80.01-.03,120.02-.04,9.77,1.03,18.37,11.64,22.55,3.07,1.21,5.63,3.85,4.55,7.54-1.13,3.89-4.85,3.54-8.07,3.55-17.92.03-35.85.15-53.77-.01-3.33-.03-7.97,1.55-9.31-3.4-1.3-4.83,2.93-6.57,6.19-7.66,12.85-4.3,11.59-15.66,12-25.18.83-19.27.25-38.6.25-57.91h.21Z"/>
  <path class="cls-1" d="M346.67,36.41c-5.3-.86-7.24-4.16-4.52-8.69,6.64-11.07,14.62-21.07,26.88-26.45,6.36-2.79,11.64-.91,15.23,5.05,3.72,6.18.55,10.71-4.38,13.87-10.38,6.64-21.48,11.96-33.21,16.22Z"/>
</svg>